<svg version="1.2" xmlns="http://www.w3.org/2000/svg" viewBox="0 0 500 500" width="500" height="500">
	<title>Logo KL</title>
	<!-- <style>
		.s0 { fill: #fff } 
	</style>
	<path id="Layer" class="s0" d="m394.4 154.8l-73.3-0.1q-0.1 0-0.2 0 0 0-0.1 0 0-0.1 0-0.1 0-0.1-0.1-0.2l0.1-9.3q0-0.1 0-0.2 0 0 0-0.1 0.1 0 0.1 0 0.1 0 0.2-0.1h83.4q0.1 0.1 0.1 0.1 0.1 0 0.1 0 0.1 0.1 0.1 0.1 0 0.1 0 0.2l-0.1 84.8q0 0.1 0 0.2 0 0-0.1 0.1 0 0-0.1 0 0 0-0.1 0h-9.3q-0.1 0-0.2 0 0 0-0.1 0 0-0.1 0-0.1 0-0.1-0.1-0.2l0.1-74.8q-0.1-0.1-0.1-0.2 0 0 0-0.1-0.1 0-0.1 0-0.1 0-0.2-0.1z"/>
	<path id="Layer" class="s0" d="m171.8 260.8q-0.1 0 0 0.1 0 0.1 0.1 0.1 0.1 0 0.2 0 0 0 0.1-0.1l49-60.4q0.3-0.2 0.5-0.4 0.3-0.2 0.5-0.3 0.3-0.2 0.6-0.2 0.4-0.1 0.7-0.1h27q0.4 0 0.8 0.2 0.4 0.3 0.5 0.7 0.2 0.4 0.2 0.8-0.1 0.4-0.4 0.8l-52.3 64.5q-0.3 0.4 0 0.8l52.9 62.3q0.3 0.3 0.4 0.8 0 0.4-0.2 0.8-0.1 0.3-0.5 0.6-0.4 0.2-0.8 0.2h-28.8q-0.3 0-0.5-0.1-0.3 0-0.5-0.1-0.3-0.1-0.5-0.3-0.2-0.2-0.4-0.4l-38-46.9q0 0-0.1-0.1-0.1 0-0.2-0.1-0.1 0-0.3 0.1-0.1 0-0.1 0.1l-34.7 39q-0.5 0.6-0.5-0.2v-121.5q0-0.4 0.2-0.8 0.1-0.3 0.4-0.6 0.3-0.3 0.6-0.4 0.4-0.2 0.8-0.2h21.5q0.3 0 0.7 0.1 0.3 0.2 0.5 0.4 0.3 0.3 0.4 0.6 0.1 0.3 0.2 0.7z"/>
	<path id="Layer" class="s0" d="m276.3 201.5q0-0.4 0.1-0.8 0.1-0.3 0.4-0.6 0.3-0.3 0.7-0.4 0.3-0.2 0.7-0.2h21.5q0.4 0 0.7 0.1 0.3 0.2 0.6 0.4 0.2 0.3 0.4 0.6 0.1 0.3 0.1 0.7v79.9q0 0.8-0.8 0.8h-23.7q-0.8 0-0.8-0.8z"/>
	<path id="Layer" class="s0" d="m105.6 381.8l73.3-0.1q0.1 0.1 0.2 0.1 0 0 0.1 0 0 0.1 0 0.1 0 0.1 0.1 0.2v9.3q-0.1 0.1-0.1 0.2 0 0 0 0.1-0.1 0-0.1 0-0.1 0-0.2 0h-83.4q0 0-0.1 0-0.1 0-0.1 0-0.1-0.1-0.1-0.1 0-0.1 0-0.2l0.1-84.6q0 0 0-0.1 0-0.1 0.1-0.1 0-0.1 0.1-0.1 0 0 0.1 0h9.3q0.1 0 0.2 0 0 0 0.1 0.1 0 0 0 0.1 0 0 0.1 0.1v74.6q0 0.1 0 0.2 0 0 0 0.1 0.1 0 0.1 0 0.1 0 0.2 0z"/>
	<path id="Layer" class="s0" d="m276.2 308.6q0-0.2 0.1-0.5 0.2-0.3 0.3-0.5 0.2-0.1 0.5-0.3 0.3-0.1 0.5-0.1h69.1q0.5 0 1.1 0.2 0.5 0.1 0.9 0.4 0.4 0.3 0.6 0.6 0.2 0.4 0.2 0.7v21q0 0.4-0.2 0.7-0.2 0.4-0.6 0.6-0.4 0.3-0.9 0.5-0.6 0.1-1.1 0.1h-69.1q-0.2 0-0.5-0.1-0.3-0.1-0.5-0.3-0.1-0.2-0.3-0.5-0.1-0.2-0.1-0.5z"/> -->
	 <defs>
        <linearGradient id="gradient" x1="0%" y1="0%" x2="100%" y2="100%">
            <stop offset="0%" style="stop-color:#162640; stop-opacity:1" />
            <stop offset="100%" style="stop-color:#76BFBD; stop-opacity:1" />
        </linearGradient>
    </defs>
    <path id="Layer" fill="url(#gradient)" d="m394.4 154.8l-73.3-0.1q-0.1 0-0.2 0 0 0-0.1 0 0-0.1 0-0.1 0-0.1-0.1-0.2l0.1-9.3q0-0.1 0-0.2 0 0 0-0.1 0.1 0 0.1 0 0.1 0 0.2-0.1h83.4q0.1 0.1 0.1 0.1 0.1 0 0.1 0 0.1 0.1 0.1 0.1 0 0.1 0 0.2l-0.1 84.8q0 0.1 0 0.2 0 0-0.1 0.1 0 0-0.1 0 0 0-0.1 0h-9.3q-0.1 0-0.2 0 0 0-0.1 0 0-0.1 0-0.1 0-0.1-0.1-0.2l0.1-74.8q-0.1-0.1-0.1-0.2 0 0 0-0.1-0.1 0-0.1 0-0.1 0-0.2-0.1z"/>
    <path id="Layer" fill="url(#gradient)" d="m171.8 260.8q-0.1 0 0 0.1 0 0.1 0.1 0.1 0.1 0 0.2 0 0 0 0.1-0.1l49-60.4q0.3-0.2 0.5-0.4 0.3-0.2 0.5-0.3 0.3-0.2 0.6-0.2 0.4-0.1 0.7-0.1h27q0.4 0 0.8 0.2 0.4 0.3 0.5 0.7 0.2 0.4 0.2 0.8-0.1 0.4-0.4 0.8l-52.3 64.5q-0.3 0.4 0 0.8l52.9 62.3q0.3 0.3 0.4 0.8 0 0.4-0.2 0.8-0.1 0.3-0.5 0.6-0.4 0.2-0.8 0.2h-28.8q-0.3 0-0.5-0.1-0.3 0-0.5-0.1-0.3-0.1-0.5-0.3-0.2-0.2-0.4-0.4l-38-46.9q0 0-0.1-0.1-0.1 0-0.2-0.1-0.1 0-0.3 0.1-0.1 0-0.1 0.1l-34.7 39q-0.5 0.6-0.5-0.2v-121.5q0-0.4 0.2-0.8 0.1-0.3 0.4-0.6 0.3-0.3 0.6-0.4 0.4-0.2 0.8-0.2h21.5q0.3 0 0.7 0.1 0.3 0.2 0.5 0.4 0.3 0.3 0.4 0.6 0.1 0.3 0.2 0.7z"/>
    <path id="Layer" fill="url(#gradient)" d="m276.3 201.5q0-0.4 0.1-0.8 0.1-0.3 0.4-0.6 0.3-0.3 0.7-0.4 0.3-0.2 0.7-0.2h21.5q0.4 0 0.7 0.1 0.3 0.2 0.6 0.4 0.2 0.3 0.4 0.6 0.1 0.3 0.1 0.7v79.9q0 0.8-0.8 0.8h-23.7q-0.8 0-0.8-0.8z"/>
    <path id="Layer" fill="url(#gradient)" d="m105.6 381.8l73.3-0.1q0.1 0.1 0.2 0.1 0 0 0.1 0 0 0.1 0 0.1 0 0.1 0.1 0.2v9.3q-0.1 0.1-0.1 0.2 0 0 0 0.1-0.1 0-0.1 0-0.1 0-0.2 0h-83.4q0 0-0.1 0-0.1 0-0.1 0-0.1-0.1-0.1-0.1 0-0.1 0-0.2l0.1-84.6q0 0 0-0.1 0-0.1 0.1-0.1 0-0.1 0.1-0.1 0 0 0.1 0h9.3q0.1 0 0.2 0 0 0 0.1 0.1 0 0 0 0.1 0 0 0.1 0.1v74.6q0 0.1 0 0.2 0 0 0 0.1 0.1 0 0.1 0 0.1 0 0.2 0z"/>
    <path id="Layer" fill="url(#gradient)" d="m276.2 308.6q0-0.2 0.1-0.5 0.2-0.3 0.3-0.5 0.2-0.1 0.5-0.3 0.3-0.1 0.5-0.1h69.1q0.5 0 1.1 0.2 0.5 0.1 0.9 0.4 0.4 0.3 0.6 0.6 0.2 0.4 0.2 0.7v21q0 0.4-0.2 0.7-0.2 0.4-0.6 0.6-0.4 0.3-0.9 0.5-0.6 0.1-1.1 0.1h-69.1q-0.2 0-0.5-0.1-0.3-0.1-0.5-0.3-0.1-0.2-0.3-0.5-0.1-0.2-0.1-0.5z"/>
</svg>